<svg width="184" height="72" viewBox="0 0 184 72" fill="none" xmlns="http://www.w3.org/2000/svg">
<g filter="url(#filter0_ii_1_4)">
<rect width="184" height="72" rx="8" fill="url(#paint0_radial_1_4)"/>
</g>
<mask id="mask0_1_4" style="mask-type:alpha" maskUnits="userSpaceOnUse" x="0" y="0" width="184" height="72">
<rect width="184" height="72" rx="8" fill="url(#paint1_radial_1_4)"/>
</mask>
<g mask="url(#mask0_1_4)">
<g style="mix-blend-mode:overlay">
<path fill-rule="evenodd" clip-rule="evenodd" d="M83.7978 41.3368L56.9373 14.4763C53.9665 11.5055 49.1516 11.5055 46.1808 14.4763L43.3265 17.3305C38.7081 21.949 31.2194 21.949 26.5987 17.3305C23.6279 14.3598 23.6279 9.54479 26.5987 6.574L52.7165 -19.5438C55.5685 -22.3958 59.4397 -24 63.4731 -24H150.711C154.1 -24 155.796 -19.9026 153.401 -17.5077L94.5567 41.3368C91.5859 44.3076 86.7709 44.3076 83.8001 41.3368H83.7978ZM-3.15875 45.1936L-5.76035 47.7952C-8.72948 50.7643 -8.72948 55.5782 -5.76035 58.5473L30.4244 94.7321C33.3935 97.7012 38.2075 97.7012 41.1766 94.7321L43.7782 92.1305C46.7473 89.1614 46.7473 84.3475 43.7782 81.3783L7.59342 45.1936C4.62429 42.2244 -0.189621 42.2244 -3.15875 45.1936ZM86.3304 58.5194C89.3011 55.5486 89.3011 50.7336 86.3304 47.7628H86.3327L54.9908 16.421C53.0804 14.5105 49.9862 14.5105 48.0757 16.421L45.2192 19.2775C39.5381 24.9563 30.3287 24.9563 24.6499 19.2775C20.6211 15.2487 20.6211 8.7152 24.6499 4.68406L38.3727 -9.0387L27.9041 -19.5073C25.0521 -22.3616 21.1832 -23.9635 17.1475 -23.9635H-70.1891C-73.5781 -23.9635 -75.2737 -19.8661 -72.8788 -17.4712L-8.61837 46.7916L-5.11283 43.2883C-1.0817 39.2595 5.44947 39.2595 9.47832 43.2883L45.6808 79.4908C49.7234 83.5357 49.7074 90.0966 45.642 94.1208L42.9637 96.7717C45.4432 97.3659 48.1649 96.6849 50.0982 94.7516L86.3304 58.5194Z" fill="black" fill-opacity="0.11"/>
</g>
</g>
<defs>
<filter id="filter0_ii_1_4" x="0" y="0" width="192" height="80" filterUnits="userSpaceOnUse" color-interpolation-filters="sRGB">
<feFlood flood-opacity="0" result="BackgroundImageFix"/>
<feBlend mode="normal" in="SourceGraphic" in2="BackgroundImageFix" result="shape"/>
<feColorMatrix in="SourceAlpha" type="matrix" values="0 0 0 0 0 0 0 0 0 0 0 0 0 0 0 0 0 0 127 0" result="hardAlpha"/>
<feOffset dx="8" dy="8"/>
<feGaussianBlur stdDeviation="5.05"/>
<feComposite in2="hardAlpha" operator="arithmetic" k2="-1" k3="1"/>
<feColorMatrix type="matrix" values="0 0 0 0 0.329167 0 0 0 0 0.0795486 0 0 0 0 0.0837089 0 0 0 1 0"/>
<feBlend mode="normal" in2="shape" result="effect1_innerShadow_1_4"/>
<feColorMatrix in="SourceAlpha" type="matrix" values="0 0 0 0 0 0 0 0 0 0 0 0 0 0 0 0 0 0 127 0" result="hardAlpha"/>
<feOffset/>
<feGaussianBlur stdDeviation="10.7"/>
<feComposite in2="hardAlpha" operator="arithmetic" k2="-1" k3="1"/>
<feColorMatrix type="matrix" values="0 0 0 0 0 0 0 0 0 0 0 0 0 0 0 0 0 0 0.5 0"/>
<feBlend mode="normal" in2="effect1_innerShadow_1_4" result="effect2_innerShadow_1_4"/>
</filter>
<radialGradient id="paint0_radial_1_4" cx="0" cy="0" r="1" gradientUnits="userSpaceOnUse" gradientTransform="translate(92 36) rotate(90) scale(190.565 188.252)">
<stop stop-color="#621D1E"/>
<stop offset="1" stop-color="#C83C3E"/>
</radialGradient>
<radialGradient id="paint1_radial_1_4" cx="0" cy="0" r="1" gradientUnits="userSpaceOnUse" gradientTransform="translate(92 36) rotate(90) scale(190.565 188.252)">
<stop stop-color="#1D622C"/>
<stop offset="1" stop-color="#3CC85B"/>
</radialGradient>
</defs>
</svg>
