<svg width="54" height="54" viewBox="0 0 54 54" fill="none" xmlns="http://www.w3.org/2000/svg">
<path fill-rule="evenodd" clip-rule="evenodd" d="M44.2338 22.6936C43.7834 19.8801 41.3391 17.7234 38.4006 17.7234C35.1892 17.7234 32.5679 20.2995 32.4948 23.4936L30.4635 21.4624C29.7723 20.7712 28.6521 20.7712 27.9609 21.4624L27.2968 22.1264C26.2223 23.2009 24.4801 23.2009 23.405 22.1264C22.7138 21.4353 22.7138 20.315 23.405 19.6238L29.4815 13.5474C30.145 12.8839 31.0457 12.5106 31.9841 12.5106H52.2806C53.0691 12.5106 53.4636 13.4639 52.9064 14.0211L44.2338 22.6936ZM35.7701 26.7689L36.9238 22.154L41.3544 23.6309C41.3544 22.0022 40.0293 20.6772 38.4006 20.6772C36.772 20.6772 35.4469 22.0022 35.4469 23.6309V26.4458L35.7701 26.7689ZM35.4469 27.3519L35.5888 27.4938L35.4469 28.0615V27.3519ZM32.4932 24.3981V28.0615H31.0163C30.2007 28.0615 29.5395 28.7226 29.5395 29.5383V39.4723L28.8722 40.1395C28.4224 40.5893 27.7892 40.7478 27.2123 40.6095L27.8354 39.9928C28.7813 39.0565 28.785 37.5301 27.8445 36.589L19.4217 28.1663C18.4844 27.229 16.9649 27.229 16.027 28.1663L15.2114 28.9814L0.260846 14.0302C-0.296345 13.473 0.0981546 12.5198 0.886623 12.5198H21.206C22.145 12.5198 23.0451 12.8925 23.7086 13.5565L26.1442 15.9921L22.9515 19.1848C22.0142 20.1227 22.0142 21.6427 22.9515 22.58C24.2727 23.9012 26.4153 23.9012 27.7371 22.58L28.4017 21.9155C28.8461 21.471 29.566 21.471 30.0105 21.9155L32.4932 24.3981ZM16.4785 28.6079L15.8732 29.2131C15.1824 29.9039 15.1824 31.0239 15.8732 31.7147L24.2918 40.1333C24.9826 40.8241 26.1026 40.8241 26.7933 40.1333L27.3986 39.528C28.0894 38.8373 28.0894 37.7173 27.3986 37.0265L18.98 28.6079C18.2892 27.9171 17.1692 27.9171 16.4785 28.6079Z" fill="#383838"/>
<path d="M43.3209 28.4306H42.3364V25.1076C42.3364 22.6646 40.5696 20.677 38.3981 20.677C36.2265 20.677 34.4598 22.6646 34.4598 25.1076V28.4306H33.4752C32.9314 28.4306 32.4906 28.9265 32.4906 29.5382V37.2918C32.4906 37.9035 32.9314 38.3994 33.4752 38.3994H43.3209C43.8647 38.3994 44.3055 37.9035 44.3055 37.2918V29.5382C44.3055 28.9265 43.8647 28.4306 43.3209 28.4306ZM38.8903 33.8152V35.0765C38.8903 35.3823 38.67 35.6303 38.3981 35.6303C38.1262 35.6303 37.9058 35.3823 37.9058 35.0765V33.8152C37.6127 33.6233 37.4135 33.2701 37.4135 32.8612C37.4135 32.2494 37.8543 31.7535 38.3981 31.7535C38.9418 31.7535 39.3826 32.2494 39.3826 32.8612C39.3826 33.2701 39.1834 33.6233 38.8903 33.8152ZM36.4289 28.4306V25.1076C36.4289 23.8861 37.3123 22.8923 38.3981 22.8923C39.4838 22.8923 40.3672 23.8861 40.3672 25.1076V28.4306H36.4289Z" fill="#383838"/>
</svg>
