<svg width="34" height="34" viewBox="0 0 34 34" fill="none" xmlns="http://www.w3.org/2000/svg">
<path d="M8.48987 16.6882C7.767 16.6882 7.07373 16.4011 6.56259 15.8899C6.05144 15.3788 5.76428 14.6855 5.76428 13.9626C5.76428 13.2398 6.05144 12.5465 6.56259 12.0354C7.07373 11.5242 7.767 11.2371 8.48987 11.2371M8.48987 16.6882C9.21274 16.6882 9.906 16.4011 10.4171 15.8899C10.9283 15.3788 11.2155 14.6855 11.2155 13.9626C11.2155 13.2398 10.9283 12.5465 10.4171 12.0354C9.906 11.5242 9.21274 11.2371 8.48987 11.2371M8.48987 16.6882V27.5906M8.48987 11.2371V5.78589M18.3006 19.9576C17.955 19.6988 17.5528 19.5258 17.1273 19.4529C16.7017 19.38 16.2649 19.4093 15.8529 19.5383C15.4408 19.6672 15.0653 19.8923 14.7573 20.1948C14.4492 20.4973 14.2175 20.8687 14.0811 21.2783C13.9447 21.688 13.9075 22.1242 13.9728 22.551C14.038 22.9778 14.2036 23.383 14.4561 23.7333C14.7086 24.0835 15.0407 24.3687 15.425 24.5655C15.8093 24.7623 16.2349 24.8649 16.6666 24.865L16.6666 27.5906M16.6666 5.78589V19.4138M24.8434 12.5998C24.1205 12.5998 23.4272 12.3127 22.9161 11.8015C22.4049 11.2904 22.1178 10.5971 22.1178 9.87426C22.1178 9.15139 22.4049 8.45813 22.9161 7.94699C23.4272 7.43584 24.1205 7.14868 24.8434 7.14868M24.8434 12.5998C25.5662 12.5998 26.2595 12.3127 26.7706 11.8015C27.2818 11.2904 27.569 10.5971 27.569 9.87426C27.569 9.15139 27.2818 8.45813 26.7706 7.94699C26.2595 7.43584 25.5662 7.14868 24.8434 7.14868M24.8434 12.5998V16.0068M24.8434 7.14868V5.78589M26.2075 28.9534C25.4847 28.9534 24.7914 28.6662 24.2803 28.155C23.7691 27.6439 23.482 26.9506 23.482 26.2278C23.482 25.5049 23.7691 24.8116 24.2803 24.3005C24.7914 23.7893 25.4847 23.5022 26.2075 23.5022M26.2075 28.9534C26.9304 28.9534 27.6237 28.6662 28.1348 28.155C28.646 27.6439 28.9331 26.9506 28.9331 26.2278C28.9331 25.5049 28.646 24.8116 28.1348 24.3005C27.6237 23.7893 26.9304 23.5022 26.2075 23.5022M26.2075 28.9534V30.9975M26.2075 23.5022V21.458M30.3381 23.8429L28.5679 24.865M23.8485 27.5906L22.0769 28.6127M22.0769 23.8429L23.8485 24.865M28.5679 27.5906L30.3395 28.6127" stroke="#149414" stroke-width="2.18047" stroke-linecap="round" stroke-linejoin="round"/>
</svg>
