<svg width="34" height="34" viewBox="0 0 34 34" fill="none" xmlns="http://www.w3.org/2000/svg">
<path d="M8.49023 16.6882C7.76736 16.6882 7.0741 16.4011 6.56295 15.8899C6.05181 15.3788 5.76465 14.6855 5.76465 13.9626C5.76465 13.2398 6.05181 12.5465 6.56295 12.0354C7.0741 11.5242 7.76736 11.2371 8.49023 11.2371M8.49023 16.6882C9.2131 16.6882 9.90637 16.4011 10.4175 15.8899C10.9287 15.3788 11.2158 14.6855 11.2158 13.9626C11.2158 13.2398 10.9287 12.5465 10.4175 12.0354C9.90637 11.5242 9.2131 11.2371 8.49023 11.2371M8.49023 16.6882V27.5906M8.49023 11.2371V5.78589M18.301 19.9576C17.9554 19.6988 17.5532 19.5258 17.1276 19.4529C16.7021 19.38 16.2653 19.4093 15.8532 19.5383C15.4412 19.6672 15.0657 19.8923 14.7576 20.1948C14.4496 20.4973 14.2178 20.8687 14.0814 21.2783C13.945 21.688 13.9079 22.1242 13.9731 22.551C14.0383 22.9778 14.204 23.383 14.4565 23.7333C14.7089 24.0835 15.041 24.3687 15.4253 24.5655C15.8097 24.7623 16.2352 24.8649 16.667 24.865L16.667 27.5906M16.667 5.78589V19.4138M24.8437 12.5998C24.1209 12.5998 23.4276 12.3127 22.9165 11.8015C22.4053 11.2904 22.1182 10.5971 22.1182 9.87426C22.1182 9.15139 22.4053 8.45813 22.9165 7.94699C23.4276 7.43584 24.1209 7.14868 24.8437 7.14868M24.8437 12.5998C25.5666 12.5998 26.2599 12.3127 26.771 11.8015C27.2822 11.2904 27.5693 10.5971 27.5693 9.87426C27.5693 9.15139 27.2822 8.45813 26.771 7.94699C26.2599 7.43584 25.5666 7.14868 24.8437 7.14868M24.8437 12.5998V16.0068M24.8437 7.14868V5.78589M26.2079 28.9534C25.485 28.9534 24.7918 28.6662 24.2806 28.155C23.7695 27.6439 23.4823 26.9506 23.4823 26.2278C23.4823 25.5049 23.7695 24.8116 24.2806 24.3005C24.7918 23.7893 25.485 23.5022 26.2079 23.5022M26.2079 28.9534C26.9308 28.9534 27.624 28.6662 28.1352 28.155C28.6463 27.6439 28.9335 26.9506 28.9335 26.2278C28.9335 25.5049 28.6463 24.8116 28.1352 24.3005C27.624 23.7893 26.9308 23.5022 26.2079 23.5022M26.2079 28.9534V30.9975M26.2079 23.5022V21.458M30.3385 23.8429L28.5682 24.865M23.8489 27.5906L22.0773 28.6127M22.0773 23.8429L23.8489 24.865M28.5682 27.5906L30.3399 28.6127" stroke="#133232" stroke-width="2.18047" stroke-linecap="round" stroke-linejoin="round"/>
</svg>
