<svg width="24" height="24" viewBox="0 0 24 24" fill="none" xmlns="http://www.w3.org/2000/svg">
<path d="M12.6909 11.5001L17.753 6.4379C18.0823 6.10862 18.0823 5.5762 17.753 5.24696C17.4237 4.91768 16.8913 4.91768 16.562 5.24696L11.4999 10.3091L6.43799 5.24696C6.10855 4.91768 5.57635 4.91768 5.24707 5.24696C4.91764 5.57624 4.91764 6.10862 5.24707 6.4379L10.309 11.5001L5.24711 16.5623C4.91768 16.8916 4.91768 17.424 5.24711 17.7532C5.32522 17.8316 5.41803 17.8937 5.52022 17.936C5.62241 17.9784 5.73195 18.0001 5.84257 18C6.05814 18 6.27378 17.9175 6.43803 17.7532L11.4999 12.6911L16.562 17.7532C16.6402 17.8316 16.733 17.8937 16.8352 17.936C16.9373 17.9784 17.0469 18.0001 17.1575 18C17.3731 18 17.5887 17.9175 17.753 17.7532C18.0823 17.424 18.0823 16.8916 17.753 16.5623L12.6909 11.5001Z" fill="#354052"/>
</svg>
