<svg width="22" height="23" viewBox="0 0 22 23" fill="none" xmlns="http://www.w3.org/2000/svg">
<path fill-rule="evenodd" clip-rule="evenodd" d="M4.82774 18.707C4.82774 19.2011 5.22833 19.6017 5.72248 19.6017C6.21664 19.6017 6.61723 19.2011 6.61723 18.707V17.8127H10.1962V18.707C10.1962 19.2011 10.5968 19.6017 11.0909 19.6017C11.5851 19.6017 11.9857 19.2011 11.9857 18.707V17.8127H15.5647V18.707C15.5647 19.2011 15.9653 19.6017 16.4594 19.6017C16.9536 19.6017 17.3541 19.2011 17.3541 18.707V17.8127H18.2487C18.7429 17.8127 19.1435 17.4121 19.1435 16.918C19.1435 16.4238 18.7429 16.0232 18.2487 16.0232H17.3541V12.4443H18.2487C18.7429 12.4443 19.1435 12.0437 19.1435 11.5495C19.1435 11.0554 18.7429 10.6548 18.2487 10.6548H17.3541V7.07581H18.2487C18.7429 7.07581 19.1435 6.67522 19.1435 6.18107C19.1435 5.68692 18.7429 5.28633 18.2487 5.28633H17.3541V4.39108C17.3541 3.89693 16.9536 3.49634 16.4594 3.49634C15.9653 3.49634 15.5647 3.89693 15.5647 4.39108V5.28633H11.9857V4.39108C11.9857 3.89693 11.5851 3.49634 11.0909 3.49634C10.5968 3.49634 10.1962 3.89693 10.1962 4.39108V5.28633H6.61723V4.39108C6.61723 3.89693 6.21664 3.49634 5.72248 3.49634C5.22833 3.49634 4.82774 3.89693 4.82774 4.39108V5.28633H3.93283C3.43868 5.28633 3.03809 5.68692 3.03809 6.18107C3.03809 6.67522 3.43868 7.07581 3.93283 7.07581H4.82774L4.82774 10.6548H3.93283C3.43868 10.6548 3.03809 11.0554 3.03809 11.5495C3.03809 12.0437 3.43868 12.4443 3.93283 12.4443H4.82774L4.82774 16.0232H3.93283C3.43868 16.0232 3.03809 16.4238 3.03809 16.918C3.03809 17.4121 3.43868 17.8127 3.93283 17.8127H4.82774V18.707ZM6.61723 7.07581L6.61723 10.6548H10.1962V7.07581H6.61723ZM11.9857 7.07581V10.6548H15.5647V7.07581H11.9857ZM15.5647 12.4443H11.9857V16.0232H15.5647V12.4443ZM10.1962 16.0232V12.4443H6.61723L6.61723 16.0232H10.1962Z" fill="#0A460A"/>
</svg>
