<svg width="16.105469" height="16.105347" viewBox="0 0 16.1055 16.1053" fill="none" xmlns="http://www.w3.org/2000/svg" xmlns:xlink="http://www.w3.org/1999/xlink">
	<defs/>
	<path id="Union" d="M3.5791 0.894775L3.5791 1.79004L7.1582 1.79004L7.1582 0.894775C7.1582 0.393677 7.55176 0 8.05298 0C8.55396 0 8.94751 0.393677 8.94751 0.894775L8.94751 1.79004L12.5266 1.79004L12.5266 0.894775C12.5266 0.393677 12.9202 0 13.4214 0C13.9224 0 14.3162 0.393677 14.3162 0.894775L14.3162 1.79004L15.2107 1.79004C15.7117 1.79004 16.1055 2.18372 16.1055 2.68469C16.1055 3.18579 15.7117 3.57947 15.2107 3.57947L14.3162 3.57947L14.3162 7.15845L15.2107 7.15845C15.7117 7.15845 16.1055 7.55212 16.1055 8.05322C16.1055 8.5542 15.7117 8.948 15.2107 8.948L14.3162 8.948L14.3162 12.5269L15.2107 12.5269C15.7117 12.5269 16.1055 12.9207 16.1055 13.4216C16.1055 13.9227 15.7117 14.3164 15.2107 14.3164L14.3162 14.3164L14.3162 15.2107C14.3162 15.7117 13.9224 16.1053 13.4214 16.1053C12.9202 16.1053 12.5266 15.7117 12.5266 15.2107L12.5266 14.3164L8.94751 14.3164L8.94751 15.2107C8.94751 15.7117 8.55396 16.1053 8.05298 16.1053C7.55176 16.1053 7.1582 15.7117 7.1582 15.2107L7.1582 14.3164L3.5791 14.3164L3.5791 15.2107C3.5791 15.7117 3.18555 16.1053 2.68433 16.1053C2.18335 16.1053 1.78955 15.7117 1.78955 15.2107L1.78955 14.3164L0.894775 14.3164C0.393799 14.3164 0 13.9227 0 13.4216C0 12.9207 0.393799 12.5269 0.894775 12.5269L1.78955 12.5269L1.78955 8.948L0.894775 8.948C0.393799 8.948 0 8.5542 0 8.05322C0 7.55212 0.393799 7.15845 0.894775 7.15845L1.78955 7.15845L1.78955 3.57947L0.894775 3.57947C0.393799 3.57947 0 3.18579 0 2.68469C0 2.18372 0.393799 1.79004 0.894775 1.79004L1.78955 1.79004L1.78955 0.894775C1.78955 0.393677 2.18335 0 2.68433 0C3.18555 0 3.5791 0.393677 3.5791 0.894775ZM3.5791 3.57947L3.5791 7.15845L7.1582 7.15845L7.1582 3.57947L3.5791 3.57947ZM8.94751 3.57947L8.94751 7.15845L12.5266 7.15845L12.5266 3.57947L8.94751 3.57947ZM12.5266 8.948L8.94751 8.948L8.94751 12.5269L12.5266 12.5269L12.5266 8.948ZM7.1582 12.5269L7.1582 8.948L3.5791 8.948L3.5791 12.5269L7.1582 12.5269Z" clip-rule="evenodd" fill="#0A460A" fill-opacity="1.000000" fill-rule="evenodd"/>
</svg>
